<svg xmlns="http://www.w3.org/2000/svg" viewBox="0 0 1030.79 695.34"><defs><style>.cls-1{fill:#444242;}.cls-2{fill:#ff4a4a;}</style></defs><g id="Layer_2" data-name="Layer 2"><g id="OBJECTS"><rect class="cls-1" x="348.35" width="334.08" height="222.56"/><path class="cls-1" d="M585.42,235.71a111.28,111.28,0,1,0,0,222.56Z"/><path class="cls-1" d="M111.28,0a111.28,111.28,0,0,0,0,222.56H222.56V111.28A111.41,111.41,0,0,0,111.28,0Z"/><path class="cls-1" d="M919.5,695.34a111.28,111.28,0,1,0,0-222.56H808.22V584.06A111.41,111.41,0,0,0,919.5,695.34Z"/><path class="cls-1" d="M682.31,235.71a111.28,111.28,0,0,0,0,222.56H793.6V347A111.41,111.41,0,0,0,682.31,235.71Z"/><path class="cls-1" d="M0,347a111.28,111.28,0,0,0,222.56,0V235.71H111.28A111.41,111.41,0,0,0,0,347Z"/><path class="cls-1" d="M0,584.06a111.28,111.28,0,1,0,222.56,0V472.78H111.28A111.41,111.41,0,0,0,0,584.06Z"/><path class="cls-1" d="M348.35,458.27a111.28,111.28,0,0,0,0-222.56H237.07V347A111.41,111.41,0,0,0,348.35,458.27Z"/><path class="cls-1" d="M348.35,0a111.28,111.28,0,0,1,0,222.56H237.07V111.28A111.41,111.41,0,0,1,348.35,0Z"/><rect class="cls-1" x="808.22" y="111.28" width="222.56" height="346.99"/><path class="cls-1" d="M1030.79,111.28a111.29,111.29,0,0,1-222.57,0V0H919.5A111.41,111.41,0,0,1,1030.79,111.28Z"/><rect class="cls-1" x="343.87" y="472.78" width="338.56" height="222.56"/><path class="cls-1" d="M682.43,695.34a111.28,111.28,0,1,1,0-222.56H793.71V584.06A111.41,111.41,0,0,1,682.43,695.34Z"/><circle class="cls-2" cx="682.43" cy="111.28" r="111.28" transform="translate(121.19 515.14) rotate(-45)"/><circle class="cls-2" cx="348.35" cy="584.06" r="111.28" transform="translate(-310.97 417.39) rotate(-45)"/><rect class="cls-1" x="585.42" y="235.71" width="97.01" height="222.56"/><rect class="cls-1" x="237.07" y="303.65" width="106.8" height="154.53"/><rect class="cls-1" y="584.06" width="222.56" height="111.28" transform="translate(222.56 1279.41) rotate(180)"/></g></g></svg>